<svg xmlns="http://www.w3.org/2000/svg" width="900" height="520" viewBox="0 0 900 520" role="img">
<title>Internet terminology site map</title>
<rect width="900" height="520" fill="#f6f8f5"/>
<rect x="40" y="36" width="820" height="448" rx="12" fill="#ffffff" stroke="#d8dfd5"/>
<text x="86" y="88" font-size="36" font-weight="800" fill="#17212b"><tspan x="86" dy="0">Internet Terminology Website</tspan></text>
<text x="86" y="122" font-size="20" font-weight="500" fill="#4b5965"><tspan x="86" dy="0">One shared navigation menu links the home page and all dedicated term pages.</tspan></text>
<rect x="102" y="142" width="696" height="48" rx="8" fill="#ffffff" stroke="#247c66" stroke-width="3"/><circle cx="132" cy="166" r="11" fill="#247c66"/><text x="158" y="173" font-size="20" font-weight="700" fill="#24313a"><tspan x="158" dy="0">Internet Foundations - 1 pages</tspan></text><rect x="102" y="204" width="696" height="48" rx="8" fill="#ffffff" stroke="#2563a6" stroke-width="3"/><circle cx="132" cy="228" r="11" fill="#2563a6"/><text x="158" y="235" font-size="20" font-weight="700" fill="#24313a"><tspan x="158" dy="0">Core Protocols and Addressing - 5 pages</tspan></text><rect x="102" y="266" width="696" height="48" rx="8" fill="#ffffff" stroke="#9b5a15" stroke-width="3"/><circle cx="132" cy="290" r="11" fill="#9b5a15"/><text x="158" y="297" font-size="20" font-weight="700" fill="#24313a"><tspan x="158" dy="0">Web Access and Infrastructure - 2 pages</tspan></text><rect x="102" y="328" width="696" height="48" rx="8" fill="#ffffff" stroke="#6a5b95" stroke-width="3"/><circle cx="132" cy="352" r="11" fill="#6a5b95"/><text x="158" y="359" font-size="20" font-weight="700" fill="#24313a"><tspan x="158" dy="0">Private Networks and Architecture - 3 pages</tspan></text><rect x="102" y="390" width="696" height="48" rx="8" fill="#ffffff" stroke="#b73f51" stroke-width="3"/><circle cx="132" cy="414" r="11" fill="#b73f51"/><text x="158" y="421" font-size="20" font-weight="700" fill="#24313a"><tspan x="158" dy="0">Web Markup and Evolution - 5 pages</tspan></text>
<path d="M450 108 L450 140" stroke="#247c66" stroke-width="4" marker-end="url(#arrow)"/>
<defs>
  <marker id="arrow" markerWidth="10" markerHeight="10" refX="8" refY="3" orient="auto">
    <path d="M0,0 L0,6 L9,3 z" fill="#247c66"/>
  </marker>
</defs>
</svg>
